<svg xmlns="http://www.w3.org/2000/svg" width="980.313" height="435.701" viewBox="0 0 980.313 435.701"><defs><style>.a{fill:#1f1f27;}.b{fill:#e9b97d;}.c{opacity:0.1;}.d{fill:#f2f2f2;}</style></defs><g transform="translate(0 -13.29)"><path class="a" d="M714.207,141.381H454.038v-5.362H336.067v5.362H74.825a17.6,17.6,0,0,0-17.6,17.6V515.231a17.6,17.6,0,0,0,17.6,17.6H714.207a17.6,17.6,0,0,0,17.6-17.6V158.979a17.6,17.6,0,0,0-17.6-17.6Z" transform="translate(-30.415 -122.728)"/><path class="b" d="M0,0H627.391V353.913H0Z" transform="translate(50.406 49.754)"/><circle class="b" cx="6.435" cy="6.435" r="6.435" transform="translate(357.13 27.232)"/><path class="c" d="M498.374,403.667H50.406V49.754Z"/><circle class="d" cx="60.307" cy="60.307" r="60.307" transform="translate(88.267 256.569)"/><rect class="a" width="58.605" height="12.246" transform="translate(509.953 240.622)"/><rect class="a" width="200.307" height="5.248" transform="translate(439.102 145.279)"/><rect class="a" width="200.307" height="5.248" transform="translate(439.102 161.898)"/><rect class="a" width="200.307" height="5.248" transform="translate(439.102 178.518)"/><rect class="a" width="200.307" height="5.248" transform="translate(439.102 195.137)"/><rect class="a" width="200.307" height="5.248" transform="translate(439.102 211.757)"/><rect class="d" width="24.492" height="24.492" transform="translate(614.917 56.934)"/><path class="a" d="M681.2,215.525h-29.74v-29.74H681.2Zm-28.447-1.293H679.9V187.078H652.748Z" transform="translate(-30.415 -122.728)"/><path class="a" d="M749.422,519.96h-61.23v-4.412a.875.875,0,0,0-.875-.875H666.324a.875.875,0,0,0-.875.875v4.412H652.329v-4.412a.875.875,0,0,0-.875-.875H630.462a.875.875,0,0,0-.875.875v4.412h-13.12v-4.412a.875.875,0,0,0-.875-.875H594.6a.875.875,0,0,0-.875.875v4.411H580.6v-4.412a.875.875,0,0,0-.875-.875H558.736a.875.875,0,0,0-.875.875v4.412h-13.12v-4.412a.875.875,0,0,0-.875-.875H522.873a.875.875,0,0,0-.875.875v4.412h-13.12v-4.412a.875.875,0,0,0-.875-.875H487.01a.875.875,0,0,0-.875.875v4.412H473.015v-4.412a.875.875,0,0,0-.875-.875H307.7a.875.875,0,0,0-.875.875v4.412H293.7v-4.412a.875.875,0,0,0-.875-.875H271.833a.875.875,0,0,0-.875.875v4.412h-13.12v-4.412a.875.875,0,0,0-.875-.875H235.97a.875.875,0,0,0-.875.875v4.412H221.975v-4.412a.875.875,0,0,0-.875-.875H200.107a.875.875,0,0,0-.875.875v4.412h-13.12v-4.412a.875.875,0,0,0-.875-.875H164.244a.875.875,0,0,0-.875.875v4.412h-13.12v-4.412a.875.875,0,0,0-.875-.875H128.381a.875.875,0,0,0-.875.875v4.412h-13.12v-4.412a.875.875,0,0,0-.875-.875H92.519a.875.875,0,0,0-.875.875v4.412H51.408a20.993,20.993,0,0,0-20.993,20.993v9.493a20.993,20.993,0,0,0,20.993,20.993H749.422a20.993,20.993,0,0,0,20.993-20.993v-9.492a20.993,20.993,0,0,0-20.993-20.993Z" transform="translate(-30.415 -122.728)"/><path class="a" d="M193.586,477.272a76,76,0,1,1,76-76,76,76,0,0,1-76,76Zm0-150a74,74,0,1,0,74,74,74,74,0,0,0-74-74Z" transform="translate(-30.415 -122.728)"/><path class="a" d="M1035.727,329.97h-1.807V280.464a28.653,28.653,0,0,0-28.653-28.653H900.379a28.653,28.653,0,0,0-28.653,28.653V552.058a28.653,28.653,0,0,0,28.653,28.653h104.885a28.653,28.653,0,0,0,28.653-28.653V365.21h1.807Z" transform="translate(-55.414 -131.72)"/><path class="b" d="M1030.32,284.976v271.2a21.4,21.4,0,0,1-21.4,21.4H903.53a21.4,21.4,0,0,1-21.394-21.4v-271.2a21.4,21.4,0,0,1,21.392-21.394h12.789a10.165,10.165,0,0,0,9.413,14h60.088a10.165,10.165,0,0,0,9.413-14h13.691a21.4,21.4,0,0,1,21.4,21.4Z" transform="translate(-57.916 -134.548)"/><rect class="a" width="31.395" height="9.304" transform="translate(882.613 307.851)"/><rect class="a" width="107.306" height="3.987" transform="translate(844.657 235.415)"/><rect class="a" width="107.306" height="3.987" transform="translate(844.657 248.041)"/><rect class="a" width="107.306" height="3.987" transform="translate(844.657 260.668)"/><rect class="a" width="107.306" height="3.987" transform="translate(844.657 273.294)"/><rect class="a" width="107.306" height="3.987" transform="translate(844.657 285.92)"/><rect class="d" width="18.607" height="18.607" transform="translate(883.452 182.464)"/><path class="a" d="M969.474,340.032v22.595h22.595V340.032Zm21.615,21.615H970.454V341.012h20.635Z" transform="translate(-78.899 -152.915)"/><path class="c" d="M1030.32,573.561v28.961a21.4,21.4,0,0,1-21.4,21.4H903.53a21.4,21.4,0,0,1-21.394-21.4V456.492l88.791,70.147,1.52,1.2,16.517,13.045,1.542,1.223Z" transform="translate(-57.916 -180.895)"/><ellipse class="d" cx="33.328" cy="33.328" rx="33.328" ry="33.328" transform="translate(855.865 367.583)"/><path class="a" d="M967.372,628.844a41.786,41.786,0,1,1,41.786-41.786A41.786,41.786,0,0,1,967.372,628.844Zm0-82.052a40.266,40.266,0,1,0,40.266,40.266,40.266,40.266,0,0,0-40.266-40.266Z" transform="translate(-68.355 -202.225)"/></g></svg>