<svg xmlns="http://www.w3.org/2000/svg" width="752" height="617" viewBox="0 0 752 617"><defs><style>.a,.d{fill:#fff;}.a{opacity:0.8;}.b{fill:#68dd89;}.c{fill:none;}</style></defs><g transform="translate(0.497 0.305)"><ellipse class="a" cx="41" cy="41.5" rx="41" ry="41.5" transform="translate(669.503 113.695)"/><ellipse class="b" cx="24" cy="23" rx="24" ry="23" transform="translate(686.503 131.695)"/><circle class="a" cx="41" cy="41" r="41" transform="translate(642.503 -0.305)"/><ellipse class="b" cx="24" cy="23.5" rx="24" ry="23.5" transform="translate(659.503 17.695)"/><circle class="a" cx="41" cy="41" r="41" transform="translate(-0.497 154.695)"/><ellipse class="b" cx="23.5" cy="24" rx="23.5" ry="24" transform="translate(17.503 171.695)"/><ellipse class="a" cx="42" cy="41" rx="42" ry="41" transform="translate(35.503 474.695)"/><circle class="b" cx="23" cy="23" r="23" transform="translate(54.503 491.695)"/><circle class="a" cx="41.5" cy="41.5" r="41.5" transform="translate(91.503 35.695)"/><circle class="b" cx="23" cy="23" r="23" transform="translate(110.503 54.695)"/><path class="c" d="M818.562,400.781c0,138.168-99.1,253.194-230.1,277.877-.511.1-1.03.194-1.549.287q-12.214,2.243-24.792,3.4c-.519.054-1.03.1-1.549.139q-12.249,1.069-24.792,1.077c-.519,0-1.03,0-1.549-.008q-12.528-.058-24.792-1.209c-.519-.039-1.03-.093-1.549-.147q-12.562-1.22-24.792-3.541c-.519-.093-1.038-.194-1.549-.294C351.315,653.068,253,538.406,253,400.781,253,244.608,379.608,118,535.781,118S818.562,244.608,818.562,400.781Z" transform="translate(-146.083 -66.867)"/><rect class="b" width="1.549" height="229.711" transform="translate(441.606 212.667)"/><rect class="b" width="1.549" height="67.768" transform="translate(441.606 114.199)"/><rect class="b" width="1.549" height="335.251" transform="translate(335.466 107.128)"/><rect class="b" width="1.549" height="75.504" transform="translate(361.807 77.474)"/><rect class="b" width="1.549" height="229.818" transform="translate(361.807 189.037)"/><path class="b" d="M583.549,638.75v160.9c-.519-.039-1.03-.093-1.549-.147V638.75Z" transform="translate(-220.193 -184.17)"/><rect class="b" width="1.549" height="213.323" transform="translate(388.148 52.682)"/><path class="b" d="M617.549,433.52V754.635c-.519,0-1.031,0-1.549-.008V433.52Z" transform="translate(-227.852 -137.94)"/><rect class="b" width="1" height="295" transform="translate(414.503 77.695)"/><rect class="b" width="1.549" height="165.929" transform="translate(414.49 405.19)"/><path class="b" d="M651.55,834.53v9.219c-.519.054-1.03.1-1.55.14V834.53Z" transform="translate(-235.51 -228.271)"/><path class="b" d="M685.549,675V804.126c-.511.1-1.03.194-1.549.287V675Z" transform="translate(-243.169 -192.335)"/><path class="b" d="M549.55,675V804.126c-.519-.093-1.038-.194-1.55-.294V675Z" transform="translate(-212.534 -192.335)"/><rect class="b" width="1.549" height="48.351" transform="translate(309.125 137.129)"/><rect class="b" width="1.549" height="220.589" transform="translate(309.125 221.789)"/><rect class="b" width="1" height="287" transform="translate(282.503 154.695)"/><rect class="b" width="1.549" height="93.67" transform="translate(256.442 178.191)"/><rect class="b" width="1.549" height="139.478" transform="translate(256.442 302.9)"/><rect class="b" width="1.549" height="156.139" transform="translate(230.101 202.983)"/><rect class="b" width="3" height="53" transform="translate(229.503 388.695)"/><rect class="b" width="1.549" height="52.372" transform="translate(203.76 226.225)"/><rect class="b" width="1.549" height="129.522" transform="translate(203.76 312.856)"/><rect class="b" width="2" height="204" transform="translate(177.503 237.695)"/><rect class="b" width="1.549" height="67.354" transform="translate(151.077 294.402)"/><rect class="b" width="1.549" height="49.876" transform="translate(151.077 392.502)"/><rect class="b" width="0.803" height="292.078" transform="translate(457.391 137.129)"/><rect class="b" width="1.549" height="46.051" transform="translate(493.513 154.949)"/><rect class="b" width="1.549" height="210.632" transform="translate(493.513 231.746)"/><rect class="b" width="3" height="27" transform="translate(519.503 199.695)"/><rect class="b" width="1.549" height="134.695" transform="translate(519.855 256.635)"/><rect class="b" width="1.549" height="23.523" transform="translate(519.855 418.855)"/><rect class="b" width="1" height="238" transform="translate(546.503 203.695)"/><rect class="b" width="1.549" height="76.675" transform="translate(572.537 226.225)"/><rect class="b" width="1.549" height="110.489" transform="translate(572.537 331.889)"/><rect class="b" width="1" height="204" transform="translate(599.503 237.695)"/><path class="b" d="M546.747,671.495a7.747,7.747,0,1,1,7.747-7.747,7.747,7.747,0,0,1-7.747,7.747Zm0-13.945a6.2,6.2,0,1,0,6.2,6.2A6.2,6.2,0,0,0,546.747,657.549Z" transform="translate(-210.507 -188.055)"/><path class="b" d="M580.747,619.495a7.747,7.747,0,1,1,7.747-7.747,7.747,7.747,0,0,1-7.747,7.747Zm0-13.945a6.2,6.2,0,1,0,6.2,6.2A6.2,6.2,0,0,0,580.747,605.55Z" transform="translate(-218.166 -176.342)"/><path class="b" d="M683.747,671.495a7.747,7.747,0,1,1,7.747-7.747,7.747,7.747,0,0,1-7.747,7.747Zm0-13.945a6.2,6.2,0,1,0,6.2,6.2A6.2,6.2,0,0,0,683.747,657.549Z" transform="translate(-241.367 -188.055)"/><path class="b" d="M648.747,801a7.747,7.747,0,1,0,7.747,7.747A7.748,7.748,0,0,0,648.747,801Zm0,13.945a6.2,6.2,0,1,1,6.2-6.2A6.2,6.2,0,0,1,648.747,814.945Z" transform="translate(-233.483 -220.718)"/><path class="b" d="M648.747,558.495a7.747,7.747,0,1,1,7.747-7.747A7.747,7.747,0,0,1,648.747,558.495Zm0-13.945a6.2,6.2,0,1,0,6.2,6.2A6.2,6.2,0,0,0,648.747,544.549Z" transform="translate(-233.483 -162.601)"/><path class="b" d="M614.747,419.495a7.747,7.747,0,1,1,7.747-7.747A7.747,7.747,0,0,1,614.747,419.495Z" transform="translate(-225.824 -131.291)"/><path class="b" d="M682.747,310.495a7.747,7.747,0,1,1,7.747-7.747A7.747,7.747,0,0,1,682.747,310.495Zm0-13.945a6.2,6.2,0,1,0,6.2,6.2,6.2,6.2,0,0,0-6.2-6.2Z" transform="translate(-241.142 -106.738)"/><path class="b" d="M444.747,428.495a7.747,7.747,0,1,1,7.747-7.747A7.747,7.747,0,0,1,444.747,428.495Zm0-13.945a6.2,6.2,0,1,0,6.2,6.2A6.2,6.2,0,0,0,444.747,414.549Z" transform="translate(-187.531 -133.318)"/><path class="b" d="M376.747,437.495a7.747,7.747,0,1,1,7.747-7.747,7.747,7.747,0,0,1-7.747,7.747Zm0-13.945a6.2,6.2,0,1,0,6.2,6.2A6.2,6.2,0,0,0,376.747,423.549Z" transform="translate(-172.213 -135.345)"/><path class="b" d="M410.747,539.495a7.747,7.747,0,1,1,7.747-7.747,7.747,7.747,0,0,1-7.747,7.747Z" transform="translate(-179.872 -158.321)"/><path class="b" d="M683.747,195.495a7.747,7.747,0,1,1,7.747-7.747A7.747,7.747,0,0,1,683.747,195.495Zm0-13.945a6.2,6.2,0,1,0,6.2,6.2A6.2,6.2,0,0,0,683.747,181.549Z" transform="translate(-241.367 -80.833)"/><path class="b" d="M512.747,319.495a7.747,7.747,0,1,1,7.747-7.747A7.747,7.747,0,0,1,512.747,319.495Zm0-13.945a6.2,6.2,0,1,0,6.2,6.2A6.2,6.2,0,0,0,512.747,305.549Z" transform="translate(-202.848 -108.765)"/><path class="b" d="M478.747,248.495a7.747,7.747,0,1,1,7.747-7.747,7.747,7.747,0,0,1-7.747,7.747Zm0-13.945a6.2,6.2,0,1,0,6.2,6.2A6.2,6.2,0,0,0,478.747,234.549Z" transform="translate(-195.189 -92.772)"/><path class="b" d="M308.747,544.495a7.747,7.747,0,1,1,7.747-7.747A7.747,7.747,0,0,1,308.747,544.495Zm0-13.945a6.2,6.2,0,1,0,6.2,6.2,6.2,6.2,0,0,0-6.2-6.2Z" transform="translate(-156.896 -159.448)"/><rect class="b" width="1.549" height="67.354" transform="translate(622.895 294.402)"/><rect class="b" width="1.549" height="49.876" transform="translate(622.895 392.502)"/><path class="b" d="M917.747,544.495a7.747,7.747,0,1,1,7.747-7.747A7.747,7.747,0,0,1,917.747,544.495Zm0-13.945a6.2,6.2,0,1,0,6.2,6.2,6.2,6.2,0,0,0-6.2-6.2Z" transform="translate(-294.077 -159.448)"/><path class="b" d="M852.747,465.495a7.747,7.747,0,1,1,7.748-7.747,7.747,7.747,0,0,1-7.748,7.747Zm0-13.945a6.2,6.2,0,1,0,6.2,6.2,6.2,6.2,0,0,0-6.2-6.2Z" transform="translate(-279.436 -141.652)"/><path class="b" d="M784.747,580.495a7.747,7.747,0,1,1,7.748-7.747,7.747,7.747,0,0,1-7.748,7.747Zm0-13.945a6.2,6.2,0,1,0,6.2,6.2A6.2,6.2,0,0,0,784.747,566.55Z" transform="translate(-264.118 -167.557)"/><path class="b" d="M580.747,278.495a7.747,7.747,0,1,1,7.747-7.747A7.747,7.747,0,0,1,580.747,278.495Z" transform="translate(-218.166 -99.529)"/><path class="b" d="M784.747,369.495a7.747,7.747,0,1,1,7.748-7.747A7.747,7.747,0,0,1,784.747,369.495Zm0-13.945a6.2,6.2,0,1,0,6.2,6.2A6.2,6.2,0,0,0,784.747,355.549Z" transform="translate(-264.118 -120.028)"/><path class="b" d="M852.747,340.495a7.747,7.747,0,1,1,7.748-7.747,7.747,7.747,0,0,1-7.748,7.747Z" transform="translate(-279.436 -113.495)"/><path class="b" d="M750.747,335.495a7.747,7.747,0,1,1,7.747-7.747A7.747,7.747,0,0,1,750.747,335.495Z" transform="translate(-256.459 -112.369)"/><path class="d" d="M877.675,268.19l-138.692-2.337.026-1.549,137.116,2.311V200h1.55Z" transform="translate(-166.459 -45.051)"/><path class="d" d="M638.507,227.391l-1.43-.6L710.1,52H826.829v1.549h-115.7Z" transform="translate(-143.504 -11.713)"/><path class="d" d="M401.409,338.447H52V254h1.549v82.9H401.409Z" transform="translate(-11.711 -57.215)"/><path class="d" d="M400.648,194.519H169V100h1.549v92.969h230.1Z" transform="translate(-38.066 -22.526)"/><path class="d" d="M254.174,624.327H100v-1.549H252.624V481h1.549Z" transform="translate(-22.524 -108.349)"/></g></svg>